<svg xmlns="http://www.w3.org/2000/svg" width="250" height="120" viewBox="0 0 250 120" fill="none"><g clip-path="url(#clip0_279_67)"><path d="M22.4644 42.0451C22.4644 40.001 22.7682 38.2849 23.3788 36.8998C23.8331 35.8778 24.4553 34.9602 25.2395 34.1501C26.0266 33.337 26.889 32.736 27.8236 32.344C29.0709 31.8155 30.5062 31.5513 32.1354 31.5513C35.0813 31.5513 37.4397 32.4688 39.2078 34.3011C40.9759 36.1362 41.8614 38.6856 41.8614 41.9522C41.8614 45.2189 40.9846 47.7247 39.2281 49.554C37.4744 51.3834 35.1276 52.298 32.1904 52.298C29.2532 52.298 26.8513 51.3892 25.0977 49.5686C23.3441 47.748 22.4644 45.2421 22.4644 42.0481V42.0451ZM26.6256 41.9087C26.6256 44.1793 27.1494 45.9041 28.1941 47.0743C29.2387 48.2474 30.567 48.8339 32.1759 48.8339C33.7848 48.8339 35.1073 48.2532 36.1375 47.0888C37.1706 45.9245 37.6857 44.1793 37.6857 41.8535C37.6857 39.5277 37.1821 37.8377 36.178 36.7082C35.1739 35.5758 33.8398 35.0125 32.1759 35.0125C30.512 35.0125 29.1693 35.5845 28.1506 36.7314C27.132 37.8755 26.6227 39.6032 26.6227 41.9116L26.6256 41.9087Z" fill="#001F10"></path><path d="M41.4595 69.6271V48.7904H56.8573V52.3154H45.6526V56.9352H56.0789V60.4457H45.6526V66.1166H57.2538V69.6271H41.4595Z" fill="#001F10"></path><path d="M69.9689 80.8469L74.0288 82.139C73.4067 84.4097 72.3707 86.0967 70.9238 87.1972C69.4769 88.3006 67.6394 88.8494 65.414 88.8494C62.662 88.8494 60.3962 87.9057 58.6252 86.0183C56.8513 84.1309 55.9658 81.5496 55.9658 78.2771C55.9658 74.8131 56.8571 72.1243 58.6397 70.2078C60.4223 68.2914 62.7662 67.3332 65.6687 67.3332C68.2065 67.3332 70.2669 68.0853 71.8498 69.5894C72.7932 70.4779 73.4993 71.7555 73.971 73.4222L69.8271 74.4153C69.5811 73.338 69.0718 72.4843 68.2934 71.86C67.5149 71.2357 66.5716 70.9221 65.4574 70.9221C63.9208 70.9221 62.6736 71.4767 61.7158 72.583C60.7579 73.6893 60.2805 75.4838 60.2805 77.9606C60.2805 80.5914 60.7521 82.4642 61.6955 83.5821C62.6389 84.6972 63.863 85.2576 65.3735 85.2576C66.4847 85.2576 67.4426 84.9033 68.2442 84.1919C69.0457 83.4805 69.6216 82.3655 69.9689 80.844V80.8469Z" fill="#001F10"></path><path d="M18.2627 63.4104H45.3977L24.6464 89.2792C27.0916 91.2392 29.7858 92.8972 32.6738 94.198L82.5655 54.7952H55.8212L74.052 33.2819C71.6849 30.9502 69.0139 28.9351 66.0999 27.2945L18.2627 63.4104Z" fill="#FCB034"></path><path d="M102.26 0L72.3647 22.5702C74.6624 24.083 76.8067 25.8049 78.7803 27.7068L102.26 0Z" fill="#FCB034"></path><path d="M78.7803 27.7068C76.8068 25.8049 74.6596 24.083 72.3648 22.5702C65.3416 17.9389 56.9409 15.2385 47.9094 15.2385C23.2688 15.2385 3.2959 35.2796 3.2959 60.0015C3.2959 74.1569 9.85322 86.7704 20.077 94.9733L24.6434 89.2792C16.072 82.4062 10.5651 71.8397 10.5651 60.0015C10.5651 39.3418 27.3172 22.5325 47.9065 22.5325C54.5101 22.5325 60.7144 24.2689 66.0998 27.2974C69.0138 28.9351 71.6848 30.9531 74.0519 33.2848C80.9565 40.0881 85.2479 49.5511 85.2479 60.0044C85.2479 80.664 68.4958 97.4733 47.9065 97.4733C42.4807 97.4733 37.3268 96.2974 32.6736 94.2009L26.3507 99.1952C32.7402 102.743 40.0875 104.767 47.9094 104.767C72.5471 104.767 92.52 84.7262 92.52 60.0044C92.52 47.3095 87.2446 35.8545 78.7832 27.7097L78.7803 27.7068Z" fill="#006132"></path><path d="M24.6435 89.2792L20.0771 94.9733L0 120L26.3479 99.1894L32.6709 94.1951C29.7829 92.8943 27.0887 91.2363 24.6435 89.2763V89.2792Z" fill="#FCB034"></path><path d="M22.1836 41.9958C22.1836 39.9516 22.4874 38.2355 23.098 36.8505C23.5524 35.8284 24.1745 34.9108 24.9587 34.1007C25.7429 33.2906 26.6082 32.6866 27.5429 32.2946C28.7901 31.7662 30.2254 31.5019 31.8546 31.5019C34.8005 31.5019 37.1589 32.4195 38.927 34.2517C40.6951 36.0868 41.5806 38.6362 41.5806 41.9029C41.5806 45.1695 40.7038 47.6754 38.9473 49.5047C37.1937 51.334 34.8468 52.2486 31.9096 52.2486C28.9724 52.2486 26.5706 51.3398 24.8169 49.5192C23.0633 47.6986 22.1836 45.1927 22.1836 41.9987V41.9958ZM26.3449 41.8593C26.3449 44.13 26.8686 45.8548 27.9133 47.0249C28.9579 48.1951 30.2862 48.7846 31.8951 48.7846C33.5041 48.7846 34.8265 48.2038 35.8567 47.0395C36.8898 45.8751 37.4049 44.13 37.4049 41.8041C37.4049 39.4783 36.9014 37.7884 35.8972 36.6588C34.8931 35.5264 33.5591 34.9631 31.8951 34.9631C30.2312 34.9631 28.8885 35.5351 27.8699 36.6821C26.8513 37.8261 26.342 39.5538 26.342 41.8622L26.3449 41.8593Z" fill="#006132"></path><path d="M41.1787 69.5778V48.741H56.5766V52.2661H45.3718V56.8858H55.7981V60.3964H45.3718V66.0672H56.973V69.5778H41.1787Z" fill="#006132"></path><path d="M69.6881 80.7975L73.7481 82.0897C73.1259 84.3603 72.0899 86.0474 70.643 87.1479C69.1962 88.2513 67.3586 88.8001 65.1333 88.8001C62.3813 88.8001 60.1154 87.8564 58.3444 85.969C56.5706 84.0816 55.6851 81.5002 55.6851 78.2278C55.6851 74.7637 56.5763 72.0749 58.3589 70.1585C60.1415 68.2421 62.4855 67.2839 65.3879 67.2839C67.9258 67.2839 69.9862 68.0359 71.5691 69.54C72.5124 70.4285 73.2185 71.7061 73.6902 73.3729L69.5463 74.3659C69.3003 73.2886 68.791 72.435 68.0126 71.8107C67.2342 71.1864 66.2908 70.8728 65.1767 70.8728C63.6401 70.8728 62.3929 71.4274 61.435 72.5337C60.4772 73.64 59.9997 75.4345 59.9997 77.9113C59.9997 80.542 60.4714 82.4149 61.4148 83.5328C62.3581 84.6478 63.5822 85.2082 65.0928 85.2082C66.204 85.2082 67.1618 84.854 67.9634 84.1426C68.765 83.4312 69.3408 82.3162 69.6881 80.7946V80.7975Z" fill="#006132"></path><path d="M101.884 63.4888C101.884 61.7379 102.145 60.2657 102.668 59.0781C103.059 58.2012 103.592 57.4172 104.266 56.7203C104.94 56.0234 105.678 55.5066 106.483 55.1727C107.55 54.7197 108.783 54.4932 110.178 54.4932C112.704 54.4932 114.724 55.2801 116.24 56.851C117.757 58.4219 118.515 60.6083 118.515 63.4104C118.515 66.2124 117.762 68.3582 116.258 69.9262C114.753 71.4942 112.742 72.2782 110.224 72.2782C107.707 72.2782 105.649 71.4971 104.144 69.9378C102.64 68.3785 101.887 66.2298 101.887 63.4917L101.884 63.4888ZM105.452 63.3726C105.452 65.321 105.901 66.796 106.798 67.8007C107.695 68.8054 108.832 69.3077 110.213 69.3077C111.593 69.3077 112.724 68.8083 113.61 67.8123C114.495 66.8164 114.938 65.3181 114.938 63.3262C114.938 61.3342 114.507 59.8853 113.648 58.9155C112.788 57.9457 111.642 57.4607 110.215 57.4607C108.789 57.4607 107.64 57.9515 106.766 58.9329C105.892 59.9143 105.455 61.3952 105.455 63.3726H105.452Z" fill="#001F10"></path><path d="M122.393 71.9849L119.528 59.9463H122.008L123.816 68.2159L126.01 59.9463H128.892L130.996 68.3553L132.836 59.9463H135.276L132.362 71.9849H129.792L127.402 62.9835L125.02 71.9849H122.393Z" fill="#001F10"></path><path d="M136.512 71.9849V59.9463H145.407V61.9847H138.934V64.6531H144.959V66.6799H138.934V69.9552H145.636V71.9849H136.509H136.512Z" fill="#001F10"></path><path d="M147.38 71.9849V59.9463H149.736L154.647 67.9866V59.9463H156.898V71.9849H154.467L149.632 64.1334V71.9849H147.38Z" fill="#001F10"></path><path d="M166.636 71.9849V54.7865H179.345V57.6959H170.097V61.5085H178.703V64.4063H170.097V69.087H179.672V71.9849H166.636Z" fill="#001F10"></path><path d="M181.191 71.9849V60.045H183.614V69.9581H189.638V71.9878H181.191V71.9849Z" fill="#001F10"></path><path d="M191.03 71.9849V59.9463H199.926V61.9847H193.452V64.6531H199.477V66.6799H193.452V69.9552H200.154V71.9849H191.027H191.03Z" fill="#001F10"></path><path d="M209.215 67.5568L211.565 68.303C211.206 69.6184 210.607 70.594 209.768 71.2299C208.928 71.8687 207.866 72.1852 206.579 72.1852C204.984 72.1852 203.676 71.6394 202.649 70.5476C201.622 69.4558 201.109 67.9633 201.109 66.0672C201.109 64.0637 201.624 62.5073 202.658 61.3981C203.688 60.2889 205.045 59.7343 206.726 59.7343C208.193 59.7343 209.386 60.1698 210.303 61.041C210.85 61.5549 211.258 62.2953 211.53 63.2594L209.131 63.8343C208.989 63.21 208.694 62.7164 208.243 62.3563C207.791 61.9963 207.244 61.8133 206.602 61.8133C205.713 61.8133 204.99 62.1327 204.437 62.7744C203.885 63.4162 203.607 64.4528 203.607 65.8872C203.607 67.4087 203.879 68.4947 204.426 69.1393C204.97 69.7868 205.682 70.1091 206.553 70.1091C207.195 70.1091 207.751 69.903 208.214 69.4935C208.677 69.0841 209.009 68.4366 209.212 67.5539L209.215 67.5568Z" fill="#001F10"></path><path d="M216.01 71.9849V61.9818H212.45V59.9434H221.985V61.9818H218.435V71.9849H216.012H216.01Z" fill="#001F10"></path><path d="M223.557 71.9849V59.9463H228.655C229.937 59.9463 230.869 60.0537 231.451 60.2715C232.033 60.4864 232.496 60.8726 232.846 61.4243C233.196 61.9789 233.369 62.609 233.369 63.3204C233.369 64.2234 233.106 64.9696 232.577 65.5591C232.047 66.1485 231.257 66.5173 230.204 66.6712C230.727 66.979 231.159 67.3158 231.5 67.6817C231.842 68.0475 232.302 68.7009 232.88 69.6358L234.345 71.9849H231.448L229.697 69.3658C229.075 68.4308 228.65 67.8385 228.421 67.5946C228.192 67.3506 227.949 67.1851 227.692 67.0951C227.434 67.0051 227.029 66.9587 226.474 66.9587H225.982V71.9849H223.56H223.557ZM225.979 65.0364H227.77C228.933 65.0364 229.657 64.9871 229.946 64.8883C230.236 64.7896 230.461 64.6212 230.626 64.3802C230.791 64.1392 230.872 63.8372 230.872 63.4772C230.872 63.0706 230.765 62.7454 230.548 62.4957C230.331 62.246 230.027 62.0892 229.636 62.0224C229.44 61.9963 228.852 61.9818 227.868 61.9818H225.979V65.0364Z" fill="#001F10"></path><path d="M235.577 71.9849V59.9463H237.999V71.9849H235.577Z" fill="#001F10"></path><path d="M247.65 67.5568L250 68.303C249.641 69.6184 249.042 70.594 248.203 71.2299C247.364 71.8687 246.302 72.1852 245.014 72.1852C243.42 72.1852 242.112 71.6394 241.084 70.5476C240.057 69.4558 239.545 67.9633 239.545 66.0672C239.545 64.0637 240.06 62.5073 241.093 61.3981C242.123 60.2889 243.48 59.7343 245.162 59.7343C246.629 59.7343 247.821 60.1698 248.738 61.041C249.285 61.5549 249.693 62.2953 249.965 63.2594L247.567 63.8343C247.425 63.21 247.13 62.7164 246.678 62.3563C246.227 61.9963 245.68 61.8133 245.037 61.8133C244.149 61.8133 243.425 62.1327 242.873 62.7744C242.32 63.4162 242.042 64.4528 242.042 65.8872C242.042 67.4087 242.314 68.4947 242.861 69.1393C243.405 69.7868 244.117 70.1091 244.988 70.1091C245.631 70.1091 246.186 69.903 246.649 69.4935C247.112 69.0841 247.445 68.4366 247.648 67.5539L247.65 67.5568Z" fill="#001F10"></path><path d="M109.602 92.0638L111.64 92.7113C111.327 93.8495 110.806 94.6974 110.08 95.2491C109.353 95.8037 108.433 96.0795 107.316 96.0795C105.936 96.0795 104.799 95.6062 103.91 94.6596C103.022 93.7101 102.576 92.418 102.576 90.7745C102.576 89.0352 103.025 87.6879 103.919 86.7268C104.813 85.7657 105.988 85.2837 107.446 85.2837C108.72 85.2837 109.753 85.6612 110.549 86.4161C111.023 86.8633 111.376 87.5021 111.613 88.3384L109.533 88.8378C109.408 88.2977 109.154 87.868 108.763 87.5544C108.372 87.2408 107.898 87.084 107.339 87.084C106.567 87.084 105.942 87.3627 105.461 87.9173C104.981 88.4719 104.741 89.3721 104.741 90.6177C104.741 91.9389 104.978 92.8768 105.45 93.4372C105.921 93.9976 106.538 94.2764 107.296 94.2764C107.854 94.2764 108.335 94.0992 108.737 93.7421C109.139 93.3849 109.429 92.8245 109.602 92.0609V92.0638Z" fill="#001F10"></path><path d="M112.435 90.7455C112.435 89.6828 112.594 88.7884 112.91 88.0683C113.147 87.5369 113.468 87.0607 113.879 86.6368C114.29 86.2129 114.739 85.9022 115.225 85.696C115.873 85.4202 116.619 85.2837 117.467 85.2837C119.001 85.2837 120.228 85.7599 121.148 86.7152C122.068 87.6705 122.529 88.9975 122.529 90.6961C122.529 92.3948 122.071 93.7014 121.16 94.6509C120.245 95.6033 119.024 96.0795 117.496 96.0795C115.968 96.0795 114.718 95.6062 113.804 94.6596C112.889 93.7101 112.435 92.4064 112.435 90.7455ZM114.6 90.6729C114.6 91.8547 114.872 92.7519 115.416 93.3617C115.96 93.9715 116.651 94.2764 117.488 94.2764C118.324 94.2764 119.013 93.9744 119.551 93.3675C120.086 92.7635 120.355 91.8547 120.355 90.6439C120.355 89.433 120.095 88.5532 119.571 87.9667C119.047 87.3801 118.353 87.084 117.488 87.084C116.622 87.084 115.925 87.383 115.393 87.9783C114.86 88.5735 114.597 89.4737 114.597 90.6729H114.6Z" fill="#001F10"></path><path d="M123.848 95.9024V85.4608H126.994L128.88 92.5836L130.747 85.4608H133.898V95.9024H131.945V87.6822L129.879 95.9024H127.856L125.799 87.6822V95.9024H123.845H123.848Z" fill="#001F10"></path><path d="M135.695 95.9024V85.4608H139.067C140.346 85.4608 141.176 85.5131 141.564 85.6176C142.16 85.7744 142.661 86.1142 143.063 86.6397C143.465 87.1653 143.665 87.8419 143.665 88.6723C143.665 89.314 143.549 89.8512 143.318 90.2897C143.086 90.7281 142.791 91.0707 142.432 91.3175C142.076 91.5673 141.711 91.7328 141.344 91.8141C140.843 91.9128 140.117 91.9651 139.165 91.9651H137.796V95.9024H135.695ZM137.796 87.2263V90.188H138.945C139.773 90.188 140.325 90.1329 140.606 90.0254C140.887 89.918 141.104 89.7467 141.263 89.5115C141.422 89.2792 141.5 89.0091 141.5 88.6984C141.5 88.3181 141.39 88.0045 141.167 87.7577C140.945 87.5108 140.664 87.3569 140.322 87.296C140.071 87.2495 139.567 87.2234 138.812 87.2234H137.796V87.2263Z" fill="#001F10"></path><path d="M152.827 95.9024H150.54L149.632 93.5301H145.473L144.614 95.9024H142.386L146.44 85.4608H148.662L152.829 95.9024H152.827ZM148.958 91.7705L147.525 87.897L146.119 91.7705H148.958Z" fill="#001F10"></path><path d="M153.672 95.9024V85.4608H155.715L159.975 92.4326V85.4608H161.928V95.9024H159.818L155.622 89.0933V95.9024H153.669H153.672Z" fill="#001F10"></path><path d="M166.589 95.9024V91.5092L162.778 85.4608H165.241L167.689 89.5928L170.088 85.4608H172.507L168.682 91.5208V95.9024H166.587H166.589Z" fill="#001F10"></path><path d="M171.879 93.9018H173.873V95.3333C173.873 95.914 173.824 96.3699 173.723 96.7038C173.624 97.0407 173.436 97.3397 173.158 97.604C172.883 97.8711 172.53 98.0802 172.105 98.2312L171.714 97.4036C172.117 97.2701 172.403 97.0871 172.574 96.8548C172.745 96.6225 172.834 96.3031 172.843 95.8995H171.876V93.8989L171.879 93.9018Z" fill="#001F10"></path><path d="M179.667 95.9024V85.4608H181.767V95.9024H179.667Z" fill="#001F10"></path><path d="M183.208 95.9024V85.4608H185.251L189.511 92.4326V85.4608H191.464V95.9024H189.355L185.159 89.0933V95.9024H183.206H183.208Z" fill="#001F10"></path><path d="M199.761 92.0638L201.798 92.7113C201.486 93.8495 200.965 94.6974 200.238 95.2491C199.512 95.8037 198.592 96.0795 197.475 96.0795C196.095 96.0795 194.957 95.6062 194.069 94.6596C193.181 93.7101 192.735 92.418 192.735 90.7745C192.735 89.0352 193.183 87.6879 194.078 86.7268C194.972 85.7657 196.147 85.2837 197.605 85.2837C198.878 85.2837 199.911 85.6612 200.707 86.4161C201.182 86.8633 201.535 87.5021 201.772 88.3384L199.692 88.8378C199.567 88.2977 199.312 87.868 198.922 87.5544C198.531 87.2408 198.057 87.084 197.498 87.084C196.725 87.084 196.1 87.3627 195.62 87.9173C195.14 88.4719 194.899 89.3721 194.899 90.6177C194.899 91.9389 195.137 92.8768 195.608 93.4372C196.08 93.9976 196.696 94.2764 197.455 94.2764C198.013 94.2764 198.493 94.0992 198.896 93.7421C199.298 93.3849 199.587 92.8245 199.761 92.0609V92.0638Z" fill="#001F10"></path><path d="M202.715 95.9024V93.9018H204.709V95.9024H202.715Z" fill="#001F10"></path><path d="M249.056 77.3973H101.884V80.0919H249.056V77.3973Z" fill="#006132"></path></g><defs><clipPath id="clip0_279_67"><rect width="250" height="120" fill="white"></rect></clipPath></defs></svg>